<?xml version="1.0" encoding="UTF-8"?>
<svg version="1.1" xmlns="http://www.w3.org/2000/svg" width="960" height="1421">
<path d="M0 0 C2.94221342 0.0046167 5.884012 -0.00224929 8.82617188 -0.02050781 C33.6526932 -0.1728564 57.79632415 1.58934638 82.18188477 6.50317383 C82.93121277 6.65151672 83.68054077 6.79985962 84.45257568 6.95269775 C150.12711272 20.0139238 218.96355408 45.60051831 257.82983398 103.31567383 C259.75805904 106.26824174 261.58172912 109.27627643 263.36938477 112.31567383 C263.97049072 113.33709473 263.97049072 113.33709473 264.58374023 114.37915039 C285.30599408 150.22436107 291.43219545 191.59954648 294.36938477 232.31567383 C294.42578125 233.04367188 294.48217773 233.77166992 294.5402832 234.52172852 C299.91781571 305.95699757 293.21893437 389.47781104 245.36938477 446.31567383 C238.88080374 453.82069449 232.14601981 461.12581542 224.36938477 467.31567383 C222.97719727 468.44682617 222.97719727 468.44682617 221.55688477 469.60083008 C213.26842314 476.22925947 204.5431905 481.98901303 195.36938477 487.31567383 C194.24959229 487.96705322 194.24959229 487.96705322 193.10717773 488.6315918 C155.68064475 510.04836386 111.58109926 522.26037436 69.30688477 529.12817383 C68.10821777 529.32314453 66.90955078 529.51811523 65.67456055 529.71899414 C61.91179231 530.29929867 58.14481699 530.82627121 54.36938477 531.31567383 C53.66598969 531.40889923 52.9625946 531.50212463 52.23788452 531.59817505 C37.8868403 533.44011801 23.59140734 533.65628471 9.13623047 533.63134766 C5.33670011 533.62819854 1.53795968 533.6517035 -2.26147461 533.67700195 C-18.90709944 533.72016982 -35.14209265 532.57790109 -51.63061523 530.31567383 C-52.38994354 530.21334442 -53.14927185 530.11101501 -53.93161011 530.00558472 C-57.90928186 529.46008613 -61.86482062 528.82773563 -65.81811523 528.12817383 C-66.99986328 527.91950684 -68.18161133 527.71083984 -69.39916992 527.49584961 C-120.55671944 518.10736037 -177.10184804 501.71577986 -215.63061523 465.31567383 C-216.96003472 464.18605149 -218.29325241 463.06088071 -219.63061523 461.94067383 C-235.26944542 448.20978093 -246.92130237 430.54462091 -256.63061523 412.31567383 C-257.30906494 411.05086182 -257.30906494 411.05086182 -258.0012207 409.76049805 C-271.24028905 384.68757309 -279.55227131 357.13735371 -284.63061523 329.31567383 C-284.7949707 328.41558594 -284.95932617 327.51549805 -285.12866211 326.58813477 C-298.38293741 251.07289675 -287.87101454 163.98061933 -243.91430664 99.73754883 C-203.13812956 41.82592109 -134.7407549 17.34897373 -67.3273468 5.35317993 C-60.776483 4.21904595 -54.22103246 3.1909191 -47.63061523 2.31567383 C-46.33341553 2.13093506 -45.03621582 1.94619629 -43.69970703 1.75585938 C-29.19198021 -0.14576613 -14.60345493 -0.02478637 0 0 Z M-94.63061523 189.31567383 C-95.46077148 190.05301758 -96.29092773 190.79036133 -97.14624023 191.55004883 C-114.91158704 208.22549706 -123.31191528 232.12442598 -124.54077148 256.13208008 C-124.57041992 257.18266602 -124.60006836 258.23325195 -124.63061523 259.31567383 C-124.67057617 260.45907227 -124.71053711 261.6024707 -124.75170898 262.78051758 C-125.27154463 291.43263497 -119.13693419 318.49846078 -99.02905273 339.94458008 C-72.20086849 366.46690554 -31.44468167 374.14883344 5.14282227 374.48364258 C39.15862922 373.95036302 78.84842268 367.56611384 103.97094727 342.74536133 C109.63764386 336.73626615 114.29376883 330.49317481 118.36938477 323.31567383 C118.89274414 322.40430664 119.41610352 321.49293945 119.95532227 320.55395508 C134.48895943 293.51548797 135.11220112 257.13818714 126.68579102 228.03442383 C118.24018934 204.17622562 102.78347685 184.98825698 80.06860352 173.67114258 C59.88715177 164.47659421 36.45273409 159.97764473 14.36938477 159.31567383 C13.71808594 159.2845752 13.06678711 159.25347656 12.39575195 159.22143555 C-23.46018248 157.60783741 -67.15494138 164.42160691 -94.63061523 189.31567383 Z " fill="#2B2A29" transform="translate(463.630615234375,-0.315673828125)"/>
<path d="M0 0 C5.33536756 0.66692094 10.50136074 1.42288014 15.75 2.48828125 C17.24399118 2.78436511 18.73813877 3.07966056 20.23242188 3.37426758 C21.39729126 3.60431992 21.39729126 3.60431992 22.58569336 3.83901978 C40.65479202 7.38262967 58.67588515 10.15095434 77 12 C78.1358252 12.11714355 79.27165039 12.23428711 80.44189453 12.35498047 C113.90764152 15.64436965 148.55837146 15.40648227 182 12 C183.25184082 11.87641113 184.50368164 11.75282227 185.79345703 11.62548828 C204.30892943 9.74221067 222.54293661 6.81847509 240.81420898 3.28637695 C241.99045334 3.05997276 241.99045334 3.05997276 243.19046021 2.82899475 C244.65961041 2.54485144 246.12806923 2.25710013 247.59567261 1.96507263 C250.83068465 1.33624277 253.68329719 1 257 1 C257 128.38 257 255.76 257 387 C172.19 387 87.38 387 0 387 C0 259.29 0 131.58 0 0 Z " fill="#E31E24" transform="translate(338,532)"/>
<path d="M0 0 C6.98152257 5.04539658 13.50744236 10.59775977 20 16.25 C21.43653231 17.48029747 22.87382189 18.70971246 24.3125 19.9375 C25.6428125 21.0821875 25.6428125 21.0821875 27 22.25 C26.46884894 26.76478398 24.63379708 29.59666857 22 33.25 C17.60904482 32.74927704 15.72102385 31.40309223 12.625 28.3125 C2.84537797 19.18679029 -8.52899687 12.09310801 -21 7.25 C-22.0621875 6.8375 -23.124375 6.425 -24.21875 6 C-36.43137277 1.89108019 -53.12330739 0.37788061 -65 6.25 C-72.4987228 10.25417237 -77.16489083 14.74564112 -80.375 22.625 C-81.32413221 27.12795579 -81.32413221 27.12795579 -80 35.25 C17.68 35.58 115.36 35.91 216 36.25 C224 52.25 224 52.25 223 57.25 C215.74 57.25 208.48 57.25 201 57.25 C201 93.88 201 130.51 201 168.25 C197 169.25 197 169.25 178 163.25 C178 128.27 178 93.29 178 57.25 C168.43 57.25 158.86 57.25 149 57.25 C149.33 58.57 149.66 59.89 150 61.25 C150.08603079 62.76246959 150.12203258 64.27823853 150.12025452 65.79315186 C150.12231651 67.15187157 150.12231651 67.15187157 150.12442017 68.53804016 C150.12082489 69.52418808 150.11722961 70.510336 150.11352539 71.52636719 C150.11367142 72.57058334 150.11381744 73.6147995 150.1139679 74.69065857 C150.11327113 78.14275183 150.10548973 81.59479116 150.09765625 85.046875 C150.09579123 87.44012421 150.09436772 89.83337381 150.09336853 92.22662354 C150.08954996 98.52635756 150.07972527 104.82606854 150.06866455 111.12579346 C150.05843627 117.55391122 150.05386787 123.9820327 150.04882812 130.41015625 C150.03810244 143.02344733 150.02122606 155.63672244 150 168.25 C146.5454992 169.23103485 144.68645665 169.11946395 141.234375 168.03515625 C140.03119629 167.66596069 140.03119629 167.66596069 138.80371094 167.28930664 C137.79598633 166.96696045 136.78826172 166.64461426 135.75 166.3125 C132.5325 165.301875 129.315 164.29125 126 163.25 C126 154.34 126 145.43 126 136.25 C123.36 137.24 120.72 138.23 118 139.25 C115.43041992 139.65405273 115.43041992 139.65405273 113.23046875 139.68359375 C112.4098999 139.69511475 111.58933105 139.70663574 110.74389648 139.71850586 C109.47848022 139.70315796 109.47848022 139.70315796 108.1875 139.6875 C107.30457275 139.67920166 106.42164551 139.67090332 105.51196289 139.66235352 C98.6939989 139.48602145 93.065288 138.51592431 87 135.25 C86.0925 134.775625 85.185 134.30125 84.25 133.8125 C68.92290897 124.9568474 61.02066343 110.16020818 53.875 94.625 C53.5550708 93.94993408 53.2351416 93.27486816 52.90551758 92.5793457 C50.81120407 87.82642589 50.81120407 87.82642589 51.69335938 85.13305664 C53.2757455 82.85261117 54.21319647 82.47906149 56.8515625 81.72265625 C57.62113281 81.48740234 58.39070313 81.25214844 59.18359375 81.00976562 C59.98925781 80.77966797 60.79492188 80.54957031 61.625 80.3125 C69.05525354 78.16421418 76.45357827 75.87672185 81.0625 69.3125 C82.33210913 65.16511019 81.93182634 62.11365268 80 58.25 C64.49 57.92 48.98 57.59 33 57.25 C33.07906928 66.65892907 33.07906928 66.65892907 33.18017578 76.06762695 C33.18766846 77.82272583 33.18766846 77.82272583 33.1953125 79.61328125 C33.20578613 80.81251221 33.21625977 82.01174316 33.22705078 83.24731445 C33 86.25 33 86.25 31 89.25 C28.43674175 89.56449023 26.10264639 89.69099369 23.53515625 89.69140625 C22.41324135 89.71121803 22.41324135 89.71121803 21.2686615 89.73143005 C18.86657172 89.77239418 16.46485993 89.79397033 14.0625 89.8125 C-3.91226708 89.04323442 -3.91226708 89.04323442 -20 95.25 C-22.36980013 98.20377498 -22.36980013 98.20377498 -22 102.25 C-13.89062004 102.65622126 -6.36818932 101.95524844 1.625 100.6875 C12.01452466 99.08840546 21.96856884 97.77049641 31 104.25 C38.6792256 110.73922454 43.23053178 121.74453132 44.23828125 131.57421875 C44.5174415 140.46326879 42.00419132 147.17984503 36.375 154.0625 C28.84037645 161.97455367 18.97130719 165.14748166 8.25 165.5625 C-8.5820053 165.0949443 -22.79474552 157.41808566 -35 146.25 C-35.81855469 145.52425781 -36.63710938 144.79851562 -37.48046875 144.05078125 C-46.13280595 135.94867217 -52.45840442 126.06239337 -59 116.25 C-59 114.93 -59 113.61 -59 112.25 C-57.1015625 110.546875 -57.1015625 110.546875 -54.625 109 C-53.40683594 108.21882813 -53.40683594 108.21882813 -52.1640625 107.421875 C-50 106.25 -50 106.25 -48 106.25 C-46.74809077 107.997269 -45.57465167 109.80096278 -44.4375 111.625 C-36.12377505 124.36570846 -25.98294914 135.16023378 -11.15234375 139.83203125 C-2.11767926 141.58649423 7.00163599 140.89789067 15 136.25 C19.01366954 133.45463239 22.12809465 130.85776702 24 126.25 C24 125.26 24 124.27 24 123.25 C17.17042003 123.60557957 10.52936475 124.27816296 3.79614258 125.44677734 C-14.90889125 128.67184658 -14.90889125 128.67184658 -23.5625 122.875 C-31.7520848 116.38820016 -39.98702959 107.48245508 -43 97.25 C-43.84666554 89.82729143 -43.90331209 83.78340095 -40 77.25 C-27.83147818 65.35803549 -10.36477681 67.00692345 5.4609375 67.1796875 C7.70777344 67.21449219 7.70777344 67.21449219 10 67.25 C10 63.95 10 60.65 10 57.25 C-18.38 57.25 -46.76 57.25 -76 57.25 C-75.9278125 63.41945313 -75.855625 69.58890625 -75.78125 75.9453125 C-75.7355376 79.90104017 -75.68990104 83.85676843 -75.64453125 87.8125 C-75.5728293 94.06348527 -75.5008771 100.31446681 -75.42724609 106.56542969 C-75.3677673 111.61644128 -75.30956786 116.66746626 -75.25218201 121.71850204 C-75.23029783 123.62617372 -75.20798585 125.53384055 -75.18519592 127.44150162 C-75.0230852 141.04487772 -74.97183053 154.64567932 -75 168.25 C-80 169.25 -80 169.25 -99 163.25 C-99 128.27 -99 93.29 -99 57.25 C-109.89 57.25 -120.78 57.25 -132 57.25 C-131.96043462 66.703886 -131.96043462 66.703886 -131.90991211 76.15771484 C-131.90741455 77.33027832 -131.90491699 78.5028418 -131.90234375 79.7109375 C-131.89710693 80.91540527 -131.89187012 82.11987305 -131.88647461 83.36083984 C-132 86.25 -132 86.25 -133 88.25 C-134.28575928 88.3001123 -135.57151855 88.35022461 -136.89624023 88.40185547 C-141.69933019 88.59122512 -146.50192324 88.79135963 -151.30444336 88.99462891 C-153.37691565 89.08086753 -155.44950909 89.16424689 -157.5222168 89.24462891 C-160.51387936 89.36115916 -163.50494492 89.48821166 -166.49609375 89.6171875 C-167.87008583 89.66732498 -167.87008583 89.66732498 -169.27183533 89.71847534 C-176.83586702 90.06126238 -184.04687094 91.1098772 -191 94.25 C-191.33 96.89 -191.66 99.53 -192 102.25 C-182.53594892 101.16020018 -173.27544161 99.60655626 -163.96777344 97.57128906 C-154.97418122 95.66443123 -147.26695506 95.5931721 -139.15234375 100.328125 C-131.09207093 106.42382107 -125.48906368 116.89421753 -123.34375 126.6328125 C-122.31258266 134.48374563 -123.78138421 140.30779316 -128.140625 146.9296875 C-134.74068342 155.16589486 -144.38267221 159.48150808 -154 163.25 C-140.97575156 170.25797124 -129.50482252 171.77917657 -115 173.25 C-117.14593555 181.79884894 -119.9494127 189.99050475 -123 198.25 C-135.79740106 199.15690244 -146.234039 195.58076065 -156 187.25 C-162.11351404 181.47491263 -166.54076459 174.91535119 -170 167.25 C-170 166.59 -170 165.93 -170 165.25 C-170.99 165.58 -171.98 165.91 -173 166.25 C-180.70572212 166.95577935 -187.44886093 166.65215707 -194 162.25 C-199.92413871 157.1343008 -203.47195058 150.21037064 -204.5 142.5 C-203.88494326 138.50213116 -203.00766404 136.94918567 -200 134.25 C-191.28498189 130.58969239 -183.04090227 131.72442009 -174.4765625 135.08984375 C-172.32085702 136.09969316 -170.53390324 137.157743 -168.625 138.5625 C-166.18582657 140.51395058 -166.18582657 140.51395058 -163.64453125 140.01953125 C-156.13561545 137.83451439 -149.1258404 132.94367113 -145 126.25 C-144.05092299 123.89112899 -143.51157172 121.75670145 -143 119.25 C-151.0209016 119.97088682 -158.64887497 121.65549712 -166.47265625 123.52148438 C-175.10470987 125.49271899 -184.02724826 127.08661688 -192 122.25 C-202.18985527 114.36239813 -210.42098576 104.88181496 -214 92.25 C-214.55016033 85.97817226 -213.8631044 80.53895684 -209.8125 75.5625 C-198.29466275 66.09227826 -185.54593178 66.97770457 -171.375 67.125 C-169.68620323 67.13505043 -167.99740066 67.14417263 -166.30859375 67.15234375 C-162.20558406 67.17419261 -158.10285718 67.20860846 -154 67.25 C-154 63.95 -154 60.65 -154 57.25 C-176.44 57.25 -198.88 57.25 -222 57.25 C-230 41.25 -230 41.25 -229 36.25 C-185.44 35.92 -141.88 35.59 -97 35.25 C-99.475 31.785 -99.475 31.785 -102 28.25 C-105.51312137 21.56442357 -105.10441287 11.69275177 -103.3125 4.484375 C-102.3734513 2.24630893 -101.30828724 0.29240453 -100 -1.75 C-99.59910156 -2.43320312 -99.19820312 -3.11640625 -98.78515625 -3.8203125 C-93.12696868 -12.44699847 -83.66543027 -17.40606918 -73.90625 -20.08984375 C-47.07592723 -24.6241683 -21.79921917 -15.4492874 0 0 Z M98 57.25 C99.34738931 61.34509376 99.34738931 61.34509376 100.8515625 65.3828125 C103.49018176 72.17925605 104.56440069 79.53309489 102.2265625 86.58203125 C97.40053874 95.53242283 87.43688182 98.74688548 78.2734375 101.5859375 C77.52320313 101.80507812 76.77296875 102.02421875 76 102.25 C78.63846694 108.32289597 81.03758327 112.44950997 87.3125 115.30078125 C96.18881874 118.43587639 105.31842604 117.53103623 114 114.25 C120.79960641 110.97724475 124.42356109 107.35636861 127 100.25 C127.50245636 96.83806805 127.46965909 93.50514797 127.390625 90.0625 C127.38213531 88.64783447 127.38213531 88.64783447 127.37347412 87.20458984 C127.35124585 84.21919022 127.3010756 81.23503126 127.25 78.25 C127.22991746 76.21486119 127.21166978 74.17970341 127.1953125 72.14453125 C127.15484228 67.17883558 127.07652761 62.21579141 127 57.25 C117.43 57.25 107.86 57.25 98 57.25 Z " fill="#2B2A29" transform="translate(733,975.75)"/>
<path d="M0 0 C10.38793655 7.35285248 17.94507292 18.80138786 20.375 31.3125 C21.25575661 37.65177289 19.92377629 42.28545112 17.25 48.05078125 C16.13445777 50.53007926 16.13445777 50.53007926 16.375 54.3125 C18.20086841 57.35561402 18.93725537 58.16658512 22.375 59.3125 C24.70415838 59.48661601 27.03978512 59.57953987 29.375 59.625 C31.23125 59.68107422 31.23125 59.68107422 33.125 59.73828125 C38.64704724 59.36131629 38.64704724 59.36131629 48.375 55.3125 C48.705 43.1025 49.035 30.8925 49.375 18.3125 C46.405 18.456875 43.435 18.60125 40.375 18.75 C32.00106584 18.70108766 32.00106584 18.70108766 28.68994141 15.87353516 C24.76744064 10.69854224 21.62017236 3.89558695 22.375 -2.6875 C23.375 -3.6875 23.375 -3.6875 25.8652373 -3.8116985 C26.98579199 -3.81131878 28.10634668 -3.81093906 29.26085758 -3.81054783 C30.5482216 -3.81253888 31.83558561 -3.81452993 33.16196066 -3.81658131 C34.60928112 -3.81372771 36.0566014 -3.8107821 37.50392151 -3.80775452 C39.02683608 -3.80819008 40.54975058 -3.80906472 42.07266468 -3.81034368 C46.27759554 -3.81259148 50.48250118 -3.80856349 54.68742883 -3.80356562 C59.21437925 -3.79926537 63.74132814 -3.80070724 68.26828003 -3.8014679 C76.11819867 -3.8019934 83.96810903 -3.79884383 91.81802559 -3.79323006 C103.16782423 -3.78511865 114.51761885 -3.78250021 125.86742007 -3.78124207 C144.27969834 -3.77905098 162.69197218 -3.77238936 181.10424805 -3.76293945 C198.99487282 -3.7537668 216.8854964 -3.74668525 234.77612305 -3.74243164 C236.42903101 -3.74203756 236.42903101 -3.74203756 238.11533106 -3.74163551 C243.64318271 -3.74033051 249.17103437 -3.7390668 254.69888604 -3.73782361 C300.59092709 -3.72744923 346.48296332 -3.70982938 392.375 -3.6875 C393.74674861 -1.13310598 395.09725408 1.42914431 396.4375 4 C396.82744141 4.72123047 397.21738281 5.44246094 397.61914062 6.18554688 C397.98330078 6.89130859 398.34746094 7.59707031 398.72265625 8.32421875 C399.06304932 8.96834717 399.40344238 9.61247559 399.75415039 10.27612305 C400.375 12.3125 400.375 12.3125 399.375 17.3125 C392.115 17.3125 384.855 17.3125 377.375 17.3125 C377.375 53.9425 377.375 90.5725 377.375 128.3125 C373.375 129.3125 373.375 129.3125 354.375 123.3125 C354.375 100.5425 354.375 77.7725 354.375 54.3125 C340.42556191 60.12476587 335.25268838 62.935367 329.6015625 76.2265625 C329.19679688 77.24492188 328.79203125 78.26328125 328.375 79.3125 C327.99085938 80.26898437 327.60671875 81.22546875 327.2109375 82.2109375 C326.93507813 82.90445312 326.65921875 83.59796875 326.375 84.3125 C320.66065158 83.89930865 317.41105532 81.59742925 313 78.25 C312.35933594 77.77755859 311.71867187 77.30511719 311.05859375 76.81835938 C309.49010165 75.65954805 307.93151542 74.48734931 306.375 73.3125 C306.86592459 68.55508649 307.41973316 64.49086016 309.3125 60.0625 C309.65152344 59.25296875 309.99054688 58.4434375 310.33984375 57.609375 C311.29940284 55.48024011 312.3116714 53.3914743 313.375 51.3125 C305.97648262 50.63649334 300.30333795 50.66511761 294.2890625 55.3671875 C288.78821876 60.95784093 287.0782329 66.68142086 286.8125 74.4375 C287.10329195 81.87692729 288.86510244 86.30062292 293.5625 91.9375 C302.1262096 99.169077 311.76904637 103.77718212 322.375 107.3125 C321.90460495 115.15241749 319.14562812 122.03321135 316.375 129.3125 C307.9985576 130.11675987 300.69025955 122.47035399 294.44995117 117.47680664 C278.36943265 104.2014479 265.78803999 87.02931461 263.5625 65.8125 C262.97105953 55.32675325 265.54710312 47.49602573 271 38.6875 C277.75115148 31.93634852 285.69839879 28.63632945 295.11328125 28.1796875 C304.492541 28.40329899 314.00126087 32.24876396 320.91015625 38.66796875 C321.72355469 39.21066406 322.53695313 39.75335937 323.375 40.3125 C326.41485767 39.81739678 326.41485767 39.81739678 329.375 38.3125 C330.34179688 37.9103125 331.30859375 37.508125 332.3046875 37.09375 C333.27664063 36.6709375 334.24859375 36.248125 335.25 35.8125 C341.77251501 33.07255875 347.21632911 31.3125 354.375 31.3125 C354.375 26.6925 354.375 22.0725 354.375 17.3125 C317.085 17.3125 279.795 17.3125 241.375 17.3125 C241.705 27.2125 242.035 37.1125 242.375 47.3125 C242.44710259 54.19806478 242.49510928 61.07617937 242.47265625 67.9609375 C242.47077879 69.73409992 242.46936123 71.50726289 242.46836853 73.28042603 C242.46464743 77.8272865 242.45491386 82.37411223 242.44366455 86.92095947 C242.43321895 91.60875987 242.42882269 96.29656619 242.42382812 100.984375 C242.41327585 110.09376482 242.39633444 119.20312947 242.375 128.3125 C238.61885037 129.15338835 236.40509934 129.32253311 232.73046875 128.09765625 C231.97145264 127.85152588 231.21243652 127.60539551 230.43041992 127.35180664 C229.48400635 127.02946045 228.53759277 126.70711426 227.5625 126.375 C224.530625 125.364375 221.49875 124.35375 218.375 123.3125 C218.375 114.4025 218.375 105.4925 218.375 96.3125 C214.415 97.7975 214.415 97.7975 210.375 99.3125 C207.82128906 99.71655273 207.82128906 99.71655273 205.640625 99.74609375 C204.4175061 99.76349609 204.4175061 99.76349609 203.16967773 99.78125 C202.32993408 99.7709375 201.49019043 99.760625 200.625 99.75 C199.30447632 99.73646484 199.30447632 99.73646484 197.95727539 99.72265625 C183.2442587 99.33322984 172.79454162 93.2098995 162.6875 82.6875 C155.56854115 74.36301336 150.79364657 64.57767742 146.25 54.6875 C145.77022705 53.67502197 145.77022705 53.67502197 145.28076172 52.64208984 C143.18611899 47.88918565 143.18611899 47.88918565 144.06835938 45.19555664 C145.6507455 42.91511117 146.58819647 42.54156149 149.2265625 41.78515625 C149.99613281 41.54990234 150.76570312 41.31464844 151.55859375 41.07226562 C152.36425781 40.84216797 153.16992188 40.61207031 154 40.375 C161.43025354 38.22671418 168.82857827 35.93922185 173.4375 29.375 C174.70710913 25.22761019 174.30682634 22.17615268 172.375 18.3125 C156.865 17.9825 141.355 17.6525 125.375 17.3125 C125.54 23.933125 125.705 30.55375 125.875 37.375 C126.34850441 58.18918683 126.46269996 78.99418471 126.4375 99.8125 C126.43664398 100.52475361 126.43578796 101.23700722 126.43490601 101.97084427 C126.42356455 110.75141999 126.40356123 119.5319624 126.375 128.3125 C122.66844663 129.27855451 120.35707923 129.30652641 116.73046875 128.09765625 C115.88935547 127.82373047 115.04824219 127.54980469 114.18164062 127.26757812 C113.31732422 126.97302734 112.45300781 126.67847656 111.5625 126.375 C110.67884766 126.08431641 109.79519531 125.79363281 108.88476562 125.49414062 C106.71110968 124.77742164 104.54168224 124.04997903 102.375 123.3125 C102.35166968 112.14960234 102.33398068 100.98671063 102.32318783 89.82379341 C102.31800376 84.63854222 102.31098904 79.45330789 102.29956055 74.26806641 C102.28857055 69.24947828 102.28268961 64.23090622 102.28012276 59.21230698 C102.27829717 57.31249616 102.27473353 55.41268607 102.26926994 53.51288223 C102.23586889 41.39964211 102.59817653 29.40299129 103.375 17.3125 C93.145 17.3125 82.915 17.3125 72.375 17.3125 C72.375 53.9425 72.375 90.5725 72.375 128.3125 C68.375 129.3125 68.375 129.3125 49.375 123.3125 C49.375 109.7825 49.375 96.2525 49.375 82.3125 C46.405 82.3125 43.435 82.3125 40.375 82.3125 C36.87109375 81.4375 36.87109375 81.4375 33.8125 80.3125 C32.26369141 79.755625 32.26369141 79.755625 30.68359375 79.1875 C29.92175781 78.89875 29.15992187 78.61 28.375 78.3125 C28.42140625 79.20710938 28.4678125 80.10171875 28.515625 81.0234375 C28.80657561 90.77028285 27.58225732 97.40728292 22.25 105.5625 C13.73227087 113.70989308 4.57951186 116.7346999 -7.01806641 116.67602539 C-22.08706821 116.31278076 -33.88026178 108.72525062 -44.21044922 98.19799805 C-52.12997389 89.79394549 -58.26763105 80.14645822 -64.25 70.3125 C-64.68844238 69.60649658 -65.12688477 68.90049316 -65.57861328 68.1730957 C-67.95649539 64.14968849 -69.5318634 61.11679921 -68.625 56.3125 C-66.98046875 54.4140625 -66.98046875 54.4140625 -64.8125 52.9375 C-64.10480469 52.43476562 -63.39710937 51.93203125 -62.66796875 51.4140625 C-60.625 50.3125 -60.625 50.3125 -57.625 50.3125 C-56.7896875 51.85357422 -56.7896875 51.85357422 -55.9375 53.42578125 C-43.27943409 76.59460509 -43.27943409 76.59460509 -21.625 90.3125 C-9.39747087 91.29149339 -9.39747087 91.29149339 1.375 86.3125 C5.63735632 82.18158198 8.27661759 79.0180164 8.5 72.875 C8.40257693 70.09844244 8.21187001 67.92771877 7.375 65.3125 C-1.8880939 62.5802205 -10.95865265 64.27305867 -19.84765625 67.4375 C-22.625 68.3125 -22.625 68.3125 -26.625 68.3125 C-28.1965332 66.63183594 -28.1965332 66.63183594 -29.67578125 64.296875 C-30.20880859 63.45769531 -30.74183594 62.61851563 -31.29101562 61.75390625 C-32.10602539 60.42166016 -32.10602539 60.42166016 -32.9375 59.0625 C-33.50017578 58.18980469 -34.06285156 57.31710937 -34.64257812 56.41796875 C-38.69275119 49.92381121 -38.69275119 49.92381121 -38.37963867 47.09863281 C-37.625 45.3125 -37.625 45.3125 -35.9375 44.1875 C-30.35761575 42.07619244 -24.81575851 40.63965255 -19 39.375 C-11.56354007 37.73567588 -5.60863974 35.94881094 -0.625 29.875 C0.58663628 26.77018204 0.80603538 24.61710459 0.375 21.3125 C-0.72011543 19.5441028 -0.72011543 19.5441028 -2.625 18.3125 C-14.53207646 16.43510584 -24.34910514 20.73990823 -34.43359375 26.5546875 C-36.625 27.3125 -36.625 27.3125 -38.58496094 26.59570312 C-42.26245511 24.28252584 -44.13663973 20.53988721 -46.4375 16.9375 C-46.95248047 16.16921875 -47.46746094 15.4009375 -47.99804688 14.609375 C-48.47951172 13.86429688 -48.96097656 13.11921875 -49.45703125 12.3515625 C-49.89764893 11.67303223 -50.3382666 10.99450195 -50.79223633 10.29541016 C-51.8249985 7.8362796 -51.62028033 6.75481453 -50.625 4.3125 C-36.43944733 -7.58314166 -15.67270946 -9.6508127 0 0 Z M190.375 17.3125 C191.72959054 21.42231092 191.72959054 21.42231092 193.2265625 25.48046875 C195.98250412 32.67653853 196.96839546 40.33972834 193.9375 47.625 C189.83146149 54.67009766 181.97191966 57.76000776 174.63671875 60.453125 C172.46405626 61.2786617 170.43414824 62.23816179 168.375 63.3125 C171.71266952 69.39710107 174.66585287 73.79529239 181.59375 76.02734375 C192.35178706 78.63174196 202.77749364 76.94473489 212.2265625 71.18359375 C216.09522328 68.29639125 218.07140073 64.86581313 219.375 60.3125 C219.75602603 56.94074173 219.72599792 53.61225813 219.66796875 50.22265625 C219.66160149 48.8058683 219.66160149 48.8058683 219.65510559 47.36045837 C219.63840933 44.36500676 219.60077406 41.3702458 219.5625 38.375 C219.54744146 36.33529622 219.5337551 34.29558183 219.52148438 32.25585938 C219.49109644 27.27426409 219.432358 22.29414854 219.375 17.3125 C209.805 17.3125 200.235 17.3125 190.375 17.3125 Z " fill="#2B2A29" transform="translate(68.625,1015.6875)"/>
<path d="M0 0 C16.17 0 32.34 0 49 0 C50.43730469 4.05796875 51.87460937 8.1159375 53.35546875 12.296875 C55.29887764 17.7814633 57.24298655 23.26580324 59.1875 28.75 C59.43767128 29.45557289 59.68784256 30.16114578 59.94559479 30.88809967 C67.88792142 53.28630463 75.87590068 75.66694965 84 98 C83.91435791 97.2157666 83.82871582 96.4315332 83.74047852 95.62353516 C83.3429927 91.95786241 82.95274105 88.29145083 82.5625 84.625 C82.42779297 83.39265625 82.29308594 82.1603125 82.15429688 80.890625 C80.16193692 62.0360966 79.86844227 43.32859744 79.9375 24.375 C79.958125 16.33125 79.97875 8.2875 80 0 C96.17 0 112.34 0 129 0 C129 59.73 129 119.46 129 181 C112.83 181 96.66 181 80 181 C78.70707031 177.24238281 77.41414062 173.48476562 76.08203125 169.61328125 C74.32617301 164.51279613 72.56955385 159.41257335 70.8125 154.3125 C70.58608322 153.65529213 70.35966644 152.99808426 70.12638855 152.320961 C62.49945461 130.18502273 54.80874903 108.07255648 47 86 C47.05993134 86.63102127 47.11986267 87.26204254 47.18161011 87.91218567 C48.97438745 107.44010149 49.25342624 126.78450601 49.1373291 146.37615967 C49.11268363 150.99645276 49.10398906 155.61680368 49.09242249 160.23714447 C49.07340947 167.15821062 49.03494517 174.078914 49 181 C32.83 181 16.66 181 0 181 C0 121.27 0 61.54 0 0 Z " fill="#2B2A29" transform="translate(466,1238)"/>
<path d="M0 0 C64.06896552 0 64.06896552 0 82 8 C82.92296875 8.40734375 83.8459375 8.8146875 84.796875 9.234375 C102.01475412 17.69402659 113.29848272 33.42952673 120 51 C123.26072753 60.75397153 125.1248286 70.55728472 125.23828125 80.85546875 C125.2480751 81.59088898 125.25786896 82.3263092 125.26795959 83.08401489 C125.56719031 111.36587952 123.6263402 139.37234822 102.6875 160.8125 C75.22696575 187.11325691 34.80583349 181 0 181 C0 121.27 0 61.54 0 0 Z M50 46 C50 75.7 50 105.4 50 136 C60.0204034 133.54168989 60.0204034 133.54168989 66.6640625 126.49609375 C75.99922171 109.22834851 76.55284905 87.17393466 72.03515625 68.3046875 C69.44609944 60.03924576 66.38120104 53.14060967 59.22265625 47.98828125 C56.32447757 46.57851946 56.32447757 46.57851946 50 46 Z " fill="#2B2A29" transform="translate(617,1238)"/>
<path d="M0 0 C18.26833886 14.77321289 26.98067264 40.3305512 29.51171875 62.98828125 C31.75833708 93.19521676 28.97568422 125.94178087 9.91796875 150.8515625 C0.16985671 162.11100974 -12.68787012 172.49606624 -28.17358398 173.6315918 C-31.72886462 173.7559561 -35.27464296 173.78529807 -38.83203125 173.7890625 C-40.02699219 173.81355469 -41.22195312 173.83804687 -42.453125 173.86328125 C-58.91583344 173.91678951 -72.04430322 167.89514518 -84.01953125 156.75390625 C-104.2216267 135.14487915 -110.01721575 104.50268188 -109.45703125 75.85546875 C-108.56346881 50.98315815 -102.3729078 25.18487873 -85.20703125 6.4140625 C-84.6553125 5.78242187 -84.10359375 5.15078125 -83.53515625 4.5 C-61.62053961 -19.18865703 -24.77920437 -17.80594155 0 0 Z M-49.20703125 38.4140625 C-57.10180225 50.30349308 -57.71566645 64.90633264 -57.59814453 78.73022461 C-57.582014 80.97896693 -57.59812459 83.22591973 -57.6171875 85.47460938 C-57.63860179 99.78170257 -55.70499108 112.89919274 -47.45703125 124.9765625 C-43.88278325 127.26010983 -40.4075265 127.68482613 -36.20703125 127.4140625 C-30.75248912 125.21126664 -28.65793083 121.46200725 -26.3046875 116.32421875 C-18.34611864 95.22409846 -18.3177515 66.17198107 -25.99609375 44.984375 C-28.04644579 40.63233745 -30.82766796 36.60374415 -35.20703125 34.4140625 C-41.01819781 33.71763586 -45.20172685 33.74120737 -49.20703125 38.4140625 Z " fill="#2B2A29" transform="translate(109.20703125,1247.5859375)"/>
<path d="M0 0 C1.62215675 0.00333092 1.62215675 0.00333092 3.27708435 0.00672913 C4.49827469 0.00680466 5.71946503 0.00688019 6.97766113 0.00695801 C8.32022644 0.0120654 9.66279134 0.01728141 11.00535583 0.02259827 C12.37156116 0.02446252 13.73776716 0.02588639 15.10397339 0.02688599 C18.70596654 0.03071058 22.30791959 0.04054035 25.90989685 0.05158997 C29.58298703 0.06180536 33.25608368 0.06638388 36.92918396 0.07142639 C44.14079081 0.08216268 51.35236459 0.09923838 58.56394958 0.12025452 C65.51030796 30.76811385 72.03886369 61.50716637 78.56364441 92.2469101 C80.4112395 100.95101612 82.26443345 109.65388805 84.12512207 118.35520482 C85.4515559 124.5603204 86.77177135 130.76673915 88.08735657 136.97416377 C88.86683877 140.65128433 89.64894203 144.32779827 90.43778992 148.00292206 C91.31041897 152.06913751 92.17015655 156.13797548 93.02879333 160.20716858 C93.28739639 161.40289993 93.54599945 162.59863129 93.81243896 163.83059692 C94.04488815 164.94230759 94.27733734 166.05401825 94.51683044 167.19941711 C94.72029587 168.15557041 94.92376129 169.11172371 95.13339233 170.09685135 C95.56394958 173.12025452 95.56394958 173.12025452 95.56394958 181.12025452 C78.73394958 181.12025452 61.90394958 181.12025452 44.56394958 181.12025452 C41.56394958 166.12025452 41.56394958 166.12025452 41.56394958 158.12025452 C31.00394958 158.12025452 20.44394958 158.12025452 9.56394958 158.12025452 C9.23394958 161.75025452 8.90394958 165.38025452 8.56394958 169.12025452 C8.2668427 171.16750667 7.94339702 173.21165339 7.56394958 175.24525452 C7.39894958 176.15533264 7.23394958 177.06541077 7.06394958 178.00306702 C6.56394958 180.12025452 6.56394958 180.12025452 5.56394958 181.12025452 C3.96783977 181.21359157 2.3676153 181.23770824 0.76878357 181.23377991 C-0.25219925 181.23370438 -1.27318207 181.23362885 -2.32510376 181.23355103 C-3.43550522 181.22838974 -4.54590668 181.22322845 -5.68995667 181.21791077 C-6.82054001 181.21649582 -7.95112335 181.21508087 -9.1159668 181.21362305 C-12.74352107 181.20800471 -16.37101465 181.1954491 -19.99855042 181.18275452 C-22.45102348 181.17774188 -24.90349752 181.17317856 -27.35597229 181.16908264 C-33.38268587 181.15802932 -39.40936381 181.14127335 -45.43605042 181.12025452 C-44.78820268 172.93900705 -42.9039763 165.14178781 -40.95558167 157.19447327 C-40.59044585 155.68678076 -40.22584254 154.17895922 -39.86172485 152.67102051 C-39.07589879 149.42100734 -38.28671677 146.17183513 -37.49482727 142.92329407 C-36.23402626 137.75107068 -34.97997052 132.57722871 -33.72755432 127.40296936 C-33.51365303 126.51925407 -33.29975174 125.63553879 -33.07936859 124.72504425 C-32.63948341 122.90758229 -32.19962881 121.09011293 -31.75980377 119.27263641 C-31.08064254 116.46714015 -30.40074571 113.66182285 -29.72077942 110.85652161 C-26.2184175 96.39904602 -22.75956154 81.93143226 -19.31495667 67.46009827 C-18.80726836 65.32861447 -18.29954253 63.1971396 -17.79177856 61.06567383 C-14.80817303 48.53960215 -14.80817303 48.53960215 -11.83122253 36.01194763 C-10.66744225 31.10897097 -9.50035982 26.20679176 -8.33085442 21.30517769 C-7.89845729 19.4900232 -7.46735574 17.67455957 -7.03759956 15.858778 C-6.45085796 13.38020529 -5.85977935 10.9027069 -5.26759338 8.4254303 C-5.09528104 7.6926974 -4.92296869 6.9599645 -4.74543476 6.20502758 C-3.29236416 0.16252605 -3.29236416 0.16252605 0 0 Z M26.56394958 51.12025452 C25.25834679 59.56038886 23.95435505 68.00076984 22.6524353 76.44147301 C22.04789038 80.36056546 21.44278502 84.27956969 20.83641052 88.19837952 C20.25155182 91.9782746 19.66815002 95.75839189 19.08576965 99.53866959 C18.86301347 100.9828815 18.63972708 102.42701173 18.41590881 103.87105942 C18.10318684 105.8892934 17.7925027 107.90784282 17.48191833 109.92640686 C17.30426941 111.07668365 17.12662048 112.22696045 16.94358826 113.41209412 C16.51767432 115.99458672 16.51767432 115.99458672 16.56394958 118.12025452 C22.50394958 118.12025452 28.44394958 118.12025452 34.56394958 118.12025452 C33.89913488 106.1233709 32.57585932 94.28702812 31.06394958 82.37025452 C30.61359867 78.79243112 30.16581308 75.21429597 29.72019958 71.63587952 C29.61514099 70.79375916 29.5100824 69.95163879 29.40184021 69.08399963 C28.66437522 63.10607271 28.02782264 57.12637202 27.56394958 51.12025452 C27.23394958 51.12025452 26.90394958 51.12025452 26.56394958 51.12025452 Z " fill="#2B2A29" transform="translate(864.4360504150391,1237.8797454833984)"/>
<path d="M0 0 C16.5 0 33 0 50 0 C50 45.21 50 90.42 50 137 C62.21 137 74.42 137 87 137 C87 151.52 87 166.04 87 181 C58.29 181 29.58 181 0 181 C0 121.27 0 61.54 0 0 Z " fill="#2B2A29" transform="translate(228,1238)"/>
<path d="M0 0 C313.83 0 627.66 0 951 0 C951 3.3 951 6.6 951 10 C637.17 10 323.34 10 0 10 C0 6.7 0 3.4 0 0 Z " fill="#2B2A29" transform="translate(3,1195)"/>
<path d="M0 0 C16.83 0 33.66 0 51 0 C51 59.73 51 119.46 51 181 C34.17 181 17.34 181 0 181 C0 121.27 0 61.54 0 0 Z " fill="#2B2A29" transform="translate(394,1238)"/>
<path d="M0 0 C16.5 0 33 0 50 0 C50 59.73 50 119.46 50 181 C33.5 181 17 181 0 181 C0 121.27 0 61.54 0 0 Z " fill="#2B2A29" transform="translate(759,1238)"/>
<path d="M0 0 C16.5 0 33 0 50 0 C50 59.73 50 119.46 50 181 C33.5 181 17 181 0 181 C0 121.27 0 61.54 0 0 Z " fill="#2B2A29" transform="translate(156,1238)"/>
<path d="M0 0 C3 1 3 1 4.90234375 4.421875 C5.59070731 5.85984917 6.26869201 7.3028269 6.9375 8.75 C10.05570054 15.43100001 12.96862138 21.65584534 19.8125 25.26953125 C25.48050206 27.16223908 32.43326491 27.18662559 37.875 24.5625 C45.79235558 19.04143848 49.30514611 8.47720024 53 0 C58.54332907 0.67601574 62.76730331 5.12218661 66.578125 8.90234375 C69 12 69 12 69.546875 14.75390625 C69.07212041 17.77387297 68.22836453 20.19948339 67 23 C66.56945312 24.02738281 66.13890625 25.05476562 65.6953125 26.11328125 C60.56772269 37.24153697 54.37235438 43.93802534 43.03515625 48.8515625 C35.17444637 51.34438804 25.9873299 50.2916498 18.625 46.8125 C4.8784529 38.99540052 -1.54917871 26.33535203 -7 12 C-7.3861475 10.34477222 -7.74643914 8.68065338 -8 7 C-6.74057614 5.80040625 -5.46704714 4.61560557 -4.1875 3.4375 C-3.12595703 2.44556641 -3.12595703 2.44556641 -2.04296875 1.43359375 C-1.36878906 0.96050781 -0.69460937 0.48742187 0 0 Z " fill="#2B2A29" transform="translate(149,954)"/>
<path d="M0 0 C4.09701842 1.56713691 6.86768243 5.05838815 9.91430664 8.11645508 C10.62006836 8.79385742 11.32583008 9.47125977 12.05297852 10.16918945 C13.04587891 11.15822266 13.04587891 11.15822266 14.05883789 12.16723633 C14.66703369 12.76834229 15.27522949 13.36944824 15.90185547 13.98876953 C17.10180664 15.80395508 17.10180664 15.80395508 16.99438477 17.79956055 C15.21817769 21.78825312 11.84374886 24.57344202 8.78930664 27.61645508 C8.1119043 28.3222168 7.43450195 29.02797852 6.73657227 29.75512695 C5.74753906 30.74802734 5.74753906 30.74802734 4.73852539 31.76098633 C4.13741943 32.36918213 3.53631348 32.97737793 2.91699219 33.60400391 C1.10180664 34.80395508 1.10180664 34.80395508 -0.9140625 34.68945312 C-3.22256356 33.65919185 -4.53030066 32.49956602 -6.28100586 30.67895508 C-7.1955957 29.7430957 -7.1955957 29.7430957 -8.12866211 28.78833008 C-8.75385742 28.13348633 -9.37905273 27.47864258 -10.02319336 26.80395508 C-11.27364716 25.51020654 -12.52615584 24.21844002 -13.78100586 22.92895508 C-14.33159668 22.3540332 -14.8821875 21.77911133 -15.44946289 21.18676758 C-16.86922654 19.6959123 -16.86922654 19.6959123 -18.89819336 18.80395508 C-18.89819336 15.80395508 -18.89819336 15.80395508 -17.46459961 14.29614258 C-16.80331055 13.7624707 -16.14202148 13.22879883 -15.46069336 12.67895508 C-11.28265493 9.22075631 -7.63388526 5.42859658 -3.97631836 1.42895508 C-1.89819336 -0.19604492 -1.89819336 -0.19604492 0 0 Z " fill="#2B2A29" transform="translate(586.898193359375,966.196044921875)"/>
</svg>
